#!OML:ASF F:\VICON\USERDATA\INSTALL\rory3\rory3.ASF
:FULLY-SPECIFIED
:DEGREES
31
root 1.91013 17.7039 -20.5229 -2.95493 3.50493 2.49338
lowerback 16.0895 -1.64786 -5.36552
upperback -0.551569 -3.0011 2.20867
thorax -9.25672 -1.12027 6.16469
lowerneck -11.8759 -0.362251 -1.93029
upperneck 22.7765 0.605061 -2.93939
head 9.11347 -0.201803 -0.610873
rclavicle -1.74434e-014 3.97569e-015
rhumerus -35.2408 -10.2296 -78.0859
rradius 31.7102
rwrist 2.38352
rhand -13.1088 10.7497
rfingers 7.12502
rthumb 12.9883 -18.826
lclavicle -1.74434e-014 3.97569e-015
lhumerus -34.6108 2.93936 87.0345
lradius 43.0391
lwrist 8.20273
lhand -15.7042 51.0006
lfingers 7.12502
lthumb 10.4855 80.7191
rfemur -23.9361 5.1383 18.447
rtibia 22.4922
rfoot -6.97103 -11.9103
rtoes 8.53052
lfemur 16.9531 -3.13545 -27.305
ltibia 16.5424
lfoot -8.05626 -2.76432
ltoes -16.673
32
root 1.88176 17.7381 -20.3275 -3.05664 4.21952 1.98108
lowerback 15.9309 -1.86995 -4.87055
upperback -0.442867 -3.18229 2.3201
thorax -9.03965 -1.24076 6.02836
lowerneck -12.3499 -0.467406 -1.92347
upperneck 23.0536 0.457378 -2.83845
head 9.29755 -0.267415 -0.59796
rclavicle -6.21202e-015 -7.95139e-016
rhumerus -35.2972 -10.708 -77.9153
rradius 31.3485
rwrist 2.58353
rhand -13.1465 10.1454
rfingers 7.12502
rthumb 12.9519 -19.4326
lclavicle -6.21202e-015 -7.95139e-016
lhumerus -34.581 3.0826 87.0757
lradius 42.4168
lwrist 8.13775
lhand -17.6794 51.3608
lfingers 7.12502
lthumb 8.57975 81.1665
rfemur -23.1659 5.65687 18.9159
rtibia 22.1423
rfoot -5.63228 -12.2952
rtoes 12.1781
lfemur 17.1092 -3.91221 -26.5489
ltibia 17.4345
lfoot -7.14169 -3.34406
ltoes -17.1675
33
root 1.87399 17.7462 -20.164 -3.12967 3.24174 1.68032
lowerback 16.2868 -1.58214 -4.5509
upperback -0.787243 -2.75265 2.37674
thorax -9.69251 -1.01194 5.84951
lowerneck -11.7862 -0.423794 -1.93084
upperneck 23.3124 0.492696 -2.77543
head 9.2814 -0.244843 -0.570916
rclavicle 4.74101e-014 -1.59028e-014
rhumerus -35.9801 -10.8143 -77.6231
rradius 30.6993
rwrist 3.0351
rhand -13.4783 10.5307
rfingers 7.12502
rthumb 12.6321 -19.0674
lclavicle 4.74101e-014 -1.59028e-014
lhumerus -35.5663 3.43701 87.0951
lradius 42.1835
lwrist 8.43443
lhand -16.4209 52.0439
lfingers 7.12502
lthumb 9.79408 81.7961
rfemur -22.8577 5.77588 19.6066
rtibia 21.9239
rfoot -3.31226 -11.4829
rtoes 12.8759
lfemur 16.9335 -3.7285 -26.4127
ltibia 18.6436
lfoot -6.21538 -2.97764
ltoes -18.7004
34
root 1.86063 17.7642 -19.9931 -3.11461 2.72154 1.22691
lowerback 16.6759 -1.46391 -4.05438
upperback -0.835548 -2.49553 2.53476
thorax -10.0147 -0.895133 5.70379
lowerneck -12.9516 -0.371272 -2.09582
upperneck 23.9987 0.634293 -2.64836
head 9.74546 -0.199668 -0.491077
rclavicle 3.86388e-014 -1.98785e-014
rhumerus -35.799 -11.0895 -77.3792
rradius 29.8859
rwrist 3.52542
rhand -13.5351 11.238
rfingers 7.12502
rthumb 12.5773 -18.3634
lclavicle 3.86388e-014 -1.98785e-014
lhumerus -35.8458 4.117 87.0701
lradius 41.6649
lwrist 8.33689
lhand -17.6941 50.9655
lfingers 7.12502
lthumb 8.56553 80.7718
rfemur -22.517 5.84493 20.4301
rtibia 21.9161
rfoot -1.65665 -11.3624
rtoes 12.0179
lfemur 16.5934 -3.73873 -25.945
ltibia 19.9847
lfoot -5.10588 -2.9098
ltoes -21.1104
35
root 1.83617 17.7946 -19.8036 -3.20017 2.95619 0.775397
lowerback 16.2317 -1.46033 -3.77439
upperback -0.845783 -2.40621 2.69532
thorax -9.78741 -0.871865 5.67437
lowerneck -11.9953 -0.542438 -2.14088
upperneck 23.6221 0.353697 -2.62773
head 9.4289 -0.318223 -0.503514
rclavicle 4.26642e-014 3.18055e-015
rhumerus -36.2704 -11.4719 -76.996
rradius 29.5587
rwrist 3.64997
rhand -13.4808 11.3429
rfingers 7.12502
rthumb 12.6297 -18.2553
lclavicle 4.26642e-014 3.18055e-015
lhumerus -36.3286 4.65226 86.8529
lradius 40.282
lwrist 7.56432
lhand -18.8415 45.0511
lfingers 7.12502
lthumb 7.45815 74.8996
rfemur -21.8935 5.98308 21.139
rtibia 22.173
rfoot -1.0915 -11.9712
rtoes 11.5143
lfemur 16.3443 -4.23303 -25.3257
ltibia 21.4656
lfoot -3.86248 -3.24028
ltoes -23.3448
36
root 1.82307 17.8204 -19.6193 -3.29559 3.1076 0.544377
lowerback 16.0901 -1.44062 -3.52487
upperback -1.07689 -2.32682 2.71406
thorax -9.98122 -0.83497 5.53575
lowerneck -10.7097 -0.710737 -2.17727
upperneck 23.4088 0.0561648 -2.5587
head 9.11008 -0.440443 -0.49987
rclavicle 2.6339e-015 -7.95139e-016
rhumerus -37.2232 -11.6099 -76.6783
rradius 29.4574
rwrist 3.53667
rhand -13.5055 10.8418
rfingers 7.12502
rthumb 12.6059 -18.7578
lclavicle 2.6339e-015 -7.95139e-016
lhumerus -37.1489 4.55493 86.9909
lradius 40.7465
lwrist 6.69143
lhand -16.3532 49.7992
lfingers 7.12502
lthumb 9.85942 79.5483
rfemur -21.3976 5.75924 21.6179
rtibia 22.666
rfoot -0.951415 -11.7628
rtoes 12.9823
lfemur 15.9507 -4.72607 -25.0357
ltibia 23.1243
lfoot -2.38055 -3.52635
ltoes -23.8156
37
root 1.80471 17.8337 -19.4449 -3.43356 2.49161 0.409193
lowerback 16.2501 -1.26299 -3.45405
upperback -1.00075 -2.07463 2.76809
thorax -10.0187 -0.716356 5.50054
lowerneck -11.5518 -0.608266 -2.16025
upperneck 23.9054 0.237551 -2.54666
head 9.4436 -0.366445 -0.485854
rclavicle 2.36554e-014 5.56597e-015
rhumerus -37.171 -11.8212 -76.5118
rradius 28.8724
rwrist 3.78157
rhand -13.6881 10.8797
rfingers 7.12502
rthumb 12.4299 -18.7307
lclavicle 2.36554e-014 5.56597e-015
lhumerus -37.3717 5.18161 86.8411
lradius 40.17
lwrist 6.60567
lhand -16.1551 49.7813
lfingers 7.12502
lthumb 10.0505 79.5213
rfemur -21.0484 5.99468 22.0802
rtibia 23.295
rfoot -0.85404 -10.7726
rtoes 15.062
lfemur 15.5202 -4.53833 -24.8503
ltibia 24.7806
lfoot -0.537301 -3.88461
ltoes -23.6173
